{"title":"The Bad Lieutenant: Port of Call - New Orleans *2009*[BluRay][10","uid":5942317,"size":8018321005,"categoryP":"video","categoryS":"hd___movies","magnet":"?xt=urn:btih:d74e59bb4862dbe80b7739c5d7ccc70e850d8ea5&amp;dn=The+Bad+Lieutenant%3A+Port+of+Call+-+New+Orleans+%2A2009%2A%5BBluRay%5D%5B10&amp;tr=udp%3A%2F%2Ftracker.openbittorrent.com%3A80&amp;tr=udp%3A%2F%2Fopen.demonii.com%3A1337&amp;tr=udp%3A%2F%2Ftracker.coppersurfer.tk%3A6969&amp;tr=udp%3A%2F%2Fexodus.desync.com%3A6969","seeders":0,"leechers":4,"uploader":"albedo040","files":1,"time":1289216300,"description":"The Bad Lieutenant: Port of Call - New Orleans *2009*[BluRay][1080p][ENG, POL]\n\nGeneral information:\nCountry: USA\nRelease: 4 September 2009 (Venice Film Festival)\nGenre: Crime, Thriller \nDirector: Werner Herzog\nScreenplay: William M. Finkelstein\nOriginal Music: Klaus Badelt \nCinematography by: Peter Zeitlinger\nDuration: 1h 56mn\nLanguage: English, Polish\nSubtitles: English, Polish\nRating: 6.5/10 - 4091 votes \n\nCast:\nNicolas Cage  ...  Terence McDonagh  \nEva Mendes  ...  Frankie Donnenfeld  \nVal Kilmer  ...  Stevie Pruit  \nXzibit  ...  Big Fate (as Alvin 'Xzibit' Joiner)  \nFairuza Balk  ...  Heidi  \nShawn Hatosy  ...  Armand Benoit  \nJennifer Coolidge  ...  Genevieve  \nTom Bower  ...  Pat McDonough  \nVondie Curtis-Hall  ...  James Brasser  \nBrad Dourif  ...  Ned Schoenholtz  \nDenzel Whitaker  ...  Daryl  \nIrma P. Hall  ...  Binnie Rogers  \nShea Whigham  ...  Justin  \nMichael Shannon  ...  Mundt  \nJoe Nemmers  ...  Officer Larry Moy  \n\nPlot:\nTerence McDonagh is a drug- and gambling-addled detective in post-Katrina New Orleans investigating the killing of five Senegalese immigrants. \n\nSpecifications:\nGeneral\nFormat                           : Matroska\nOverall bit rate                 : 9 156 Kbps\n\nVideo\nFormat                           : AVC\nFormat/Info                      : Advanced Video Codec\nFormat profile                   : &lt;a class=&quot;__cf_email__&quot; href=&quot;/cdn-cgi/l/email-protection&quot; data-cfemail=&quot;e9a1808e81a9a5ddc7d8&quot;&gt;[email&amp;#160;protected]&lt;/a&gt;&lt;script cf-hash='f9e31' type=&quot;text/javascript&quot;&gt;\n/* &lt;![CDATA[ */!function(){try{var t=&quot;currentScript&quot;in document?document.currentScript:function(){for(var t=document.getElementsByTagName(&quot;script&quot;),e=t.length;e--;)if(t[e].getAttribute(&quot;cf-hash&quot;))return t[e]}();if(t&amp;&amp;t.previousSibling){var e,r,n,i,c=t.previousSibling,a=c.getAttribute(&quot;data-cfemail&quot;);if(a){for(e=&quot;&quot;,r=parseInt(a.substr(0,2),16),n=2;a.length-n;n+=2)i=parseInt(a.substr(n,2),16)^r,e+=String.fromCharCode(i);e=document.createTextNode(e),c.parentNode.replaceChild(e,c)}}}catch(u){}}();/* ]]&gt; */&lt;/script&gt;\nFormat settings, CABAC           : Yes\nFormat settings, ReFrames        : 3 frames\nFormat settings, GOP             : M=3, N=33\nMuxing mode                      : Container profile=&lt;a class=&quot;__cf_email__&quot; href=&quot;/cdn-cgi/l/email-protection&quot; data-cfemail=&quot;8edbe0e5e0e1f9e0cebaa0bf&quot;&gt;[email&amp;#160;protected]&lt;/a&gt;&lt;script cf-hash='f9e31' type=&quot;text/javascript&quot;&gt;\n/* &lt;![CDATA[ */!function(){try{var t=&quot;currentScript&quot;in document?document.currentScript:function(){for(var t=document.getElementsByTagName(&quot;script&quot;),e=t.length;e--;)if(t[e].getAttribute(&quot;cf-hash&quot;))return t[e]}();if(t&amp;&amp;t.previousSibling){var e,r,n,i,c=t.previousSibling,a=c.getAttribute(&quot;data-cfemail&quot;);if(a){for(e=&quot;&quot;,r=parseInt(a.substr(0,2),16),n=2;a.length-n;n+=2)i=parseInt(a.substr(n,2),16)^r,e+=String.fromCharCode(i);e=document.createTextNode(e),c.parentNode.replaceChild(e,c)}}}catch(u){}}();/* ]]&gt; */&lt;/script&gt;\nCodec ID                         : V_MPEG4/ISO/AVC\nBit rate                         : 7 879 Kbps\nWidth                            : 1 920 pixels\nHeight                           : 1 080 pixels\nDisplay aspect ratio             : 16:9\nFrame rate                       : 25.000 fps\n\nAudio 1\nFormat                           : AC-3\nFormat/Info                      : Audio Coding 3\nMode extension                   : CM (complete main)\nCodec ID                         : A_AC3\nBit rate mode                    : Constant\nBit rate                         : 640 Kbps\nChannel(s)                       : 6 channels\nChannel positions                : Front: L C R, Side: L R, LFE\nSampling rate                    : 48.0 KHz\nStream size                      : 535 MiB (7%)\nTitle                            : English\n\nAudio 2\nFormat                           : AC-3\nFormat/Info                      : Audio Coding 3\nMode extension                   : CM (complete main)\nCodec ID                         : A_AC3\nBit rate mode                    : Constant\nBit rate                         : 640 Kbps\nChannel(s)                       : 6 channels\nChannel positions                : Front: L C R, Side: L R, LFE\nSampling rate                    : 48.0 KHz\nStream size                      : 535 MiB (7%)\nTitle                            : Polish\nLanguage                         : Polish\n\nText 1\nFormat                           : UTF-8\nCodec ID                         : S_TEXT/UTF8\nCodec ID/Info                    : UTF-8 Plain Text\nTitle                            : English\n\nText 2\nFormat                           : UTF-8\nCodec ID                         : S_TEXT/UTF8\nCodec ID/Info                    : UTF-8 Plain Text\nTitle                            : Polish\nLanguage                         : Polish\n","torrent":{"xt":"urn:btih:d74e59bb4862dbe80b7739c5d7ccc70e850d8ea5","amp;dn":"The+Bad+Lieutenant%3A+Port+of+Call+-+New+Orleans+%2A2009%2A%5BBluRay%5D%5B10","amp;tr":["udp%3A%2F%2Ftracker.openbittorrent.com%3A80","udp%3A%2F%2Fopen.demonii.com%3A1337","udp%3A%2F%2Ftracker.coppersurfer.tk%3A6969","udp%3A%2F%2Fexodus.desync.com%3A6969"],"infoHash":"d74e59bb4862dbe80b7739c5d7ccc70e850d8ea5","infoHashBuffer":{"type":"Buffer","data":[215,78,89,187,72,98,219,232,11,119,57,197,215,204,199,14,133,13,142,165]},"announce":[],"urlList":[]}}